{
	"asset":{
		"generator":"Khronos glTF Blender I/O v4.0.44",
		"version":"2.0"
	},
	"extensionsUsed":[
		"KHR_materials_specular",
		"KHR_materials_ior"
	],
	"scene":0,
	"scenes":[
		{
			"name":"Scene",
			"nodes":[
				0,
				1,
				2,
				3,
				4,
				5
			]
		}
	],
	"nodes":[
		{
			"mesh":0,
			"name":"pCylinder1",
			"rotation":[
				0,
				-0.7071068286895752,
				0.7071068286895752,
				5.338509012631221e-08
			],
			"scale":[
				0.002668382367119193,
				0.0013431604020297527,
				0.002668382367119193
			],
			"translation":[
				-0.007783703505992889,
				0.02119990810751915,
				0.0011654810514301062
			]
		},
		{
			"mesh":1,
			"name":"pCylinder2",
			"rotation":[
				0,
				-0.7071068286895752,
				0.7071068286895752,
				5.338509012631221e-08
			],
			"scale":[
				0.002668382367119193,
				0.0013431604020297527,
				0.002668382367119193
			],
			"translation":[
				-0.007783703505992889,
				0.014979450032114983,
				0.0011654810514301062
			]
		},
		{
			"mesh":2,
			"name":"pCylinder3",
			"rotation":[
				0,
				-0.7071068286895752,
				0.7071068286895752,
				5.338509012631221e-08
			],
			"scale":[
				0.002668382367119193,
				0.0013431604020297527,
				0.002668382367119193
			],
			"translation":[
				-0.0020101165864616632,
				0.01807180419564247,
				0.0011654805857688189
			]
		},
		{
			"mesh":3,
			"name":"pCylinder4",
			"rotation":[
				0,
				-0.7071068286895752,
				0.7071068286895752,
				5.338509012631221e-08
			],
			"scale":[
				0.0011416019406169653,
				0.0013431604020297527,
				0.0011416019406169653
			],
			"translation":[
				-0.0020101165864616632,
				0.022400788962841034,
				0.000795349245890975
			]
		},
		{
			"mesh":4,
			"name":"pCylinder5",
			"rotation":[
				0,
				-0.7071068286895752,
				0.7071068286895752,
				5.338509012631221e-08
			],
			"scale":[
				0.00023121263075154275,
				0.0013431604020297527,
				0.00023121263075154275
			],
			"translation":[
				-0.00013665459118783474,
				0.01481863483786583,
				0.0007920988718979061
			]
		},
		{
			"mesh":5,
			"name":"polySurface3",
			"rotation":[
				0,
				-0.7071068286895752,
				0.7071068286895752,
				5.338508302088485e-08
			],
			"scale":[
				0.009999999776482582,
				0.009999999776482582,
				0.009999999776482582
			]
		}
	],
	"materials":[
		{
			"doubleSided":true,
			"name":"defaultPolygonShader.001",
			"pbrMetallicRoughness":{
				"baseColorFactor":[
					0,
					0,
					0,
					1
				],
				"roughnessFactor":0.25196850299835205
			}
		},
		{
			"doubleSided":true,
			"extensions":{
				"KHR_materials_specular":{
					"specularFactor":0.23622047901153564
				},
				"KHR_materials_ior":{
					"ior":1.4500000476837158
				}
			},
			"name":"Material",
			"pbrMetallicRoughness":{
				"baseColorTexture":{
					"index":0
				},
				"metallicFactor":0.11023649573326111,
				"roughnessFactor":0
			}
		}
	],
	"meshes":[
		{
			"name":"Mesh.007",
			"primitives":[
				{
					"attributes":{
						"POSITION":0,
						"NORMAL":1,
						"TEXCOORD_0":2
					},
					"indices":3,
					"material":0
				}
			]
		},
		{
			"name":"Mesh.008",
			"primitives":[
				{
					"attributes":{
						"POSITION":4,
						"NORMAL":5,
						"TEXCOORD_0":6
					},
					"indices":7,
					"material":0
				}
			]
		},
		{
			"name":"Mesh.009",
			"primitives":[
				{
					"attributes":{
						"POSITION":8,
						"NORMAL":9,
						"TEXCOORD_0":10
					},
					"indices":11,
					"material":0
				}
			]
		},
		{
			"name":"Mesh.010",
			"primitives":[
				{
					"attributes":{
						"POSITION":12,
						"NORMAL":13,
						"TEXCOORD_0":14
					},
					"indices":15,
					"material":0
				}
			]
		},
		{
			"name":"Mesh.011",
			"primitives":[
				{
					"attributes":{
						"POSITION":16,
						"NORMAL":17,
						"TEXCOORD_0":18
					},
					"indices":19,
					"material":0
				}
			]
		},
		{
			"name":"Mesh.006",
			"primitives":[
				{
					"attributes":{
						"POSITION":20,
						"NORMAL":21,
						"TEXCOORD_0":22
					},
					"indices":23,
					"material":0
				},
				{
					"attributes":{
						"POSITION":24,
						"NORMAL":25,
						"TEXCOORD_0":26
					},
					"indices":27,
					"material":1
				}
			]
		}
	],
	"textures":[
		{
			"sampler":0,
			"source":0
		}
	],
	"images":[
		{
			"mimeType":"image/png",
			"name":"IMG_4597 2",
			"uri":"eiei/IMG_4597%202.png"
		}
	],
	"accessors":[
		{
			"bufferView":0,
			"componentType":5126,
			"count":186,
			"max":[
				1.000000238418579,
				1,
				1.0000038146972656
			],
			"min":[
				-1,
				-1.11039137840271,
				-0.9999966621398926
			],
			"type":"VEC3"
		},
		{
			"bufferView":1,
			"componentType":5126,
			"count":186,
			"type":"VEC3"
		},
		{
			"bufferView":2,
			"componentType":5126,
			"count":186,
			"type":"VEC2"
		},
		{
			"bufferView":3,
			"componentType":5123,
			"count":480,
			"type":"SCALAR"
		},
		{
			"bufferView":4,
			"componentType":5126,
			"count":186,
			"max":[
				1.000000238418579,
				1,
				1
			],
			"min":[
				-1,
				-1.11039137840271,
				-1.0000004768371582
			],
			"type":"VEC3"
		},
		{
			"bufferView":5,
			"componentType":5126,
			"count":186,
			"type":"VEC3"
		},
		{
			"bufferView":6,
			"componentType":5126,
			"count":186,
			"type":"VEC2"
		},
		{
			"bufferView":7,
			"componentType":5123,
			"count":480,
			"type":"SCALAR"
		},
		{
			"bufferView":8,
			"componentType":5126,
			"count":186,
			"max":[
				1,
				1,
				1
			],
			"min":[
				-1,
				-1.11039137840271,
				-1
			],
			"type":"VEC3"
		},
		{
			"bufferView":9,
			"componentType":5126,
			"count":186,
			"type":"VEC3"
		},
		{
			"bufferView":10,
			"componentType":5126,
			"count":186,
			"type":"VEC2"
		},
		{
			"bufferView":11,
			"componentType":5123,
			"count":480,
			"type":"SCALAR"
		},
		{
			"bufferView":12,
			"componentType":5126,
			"count":74,
			"max":[
				1,
				1,
				1
			],
			"min":[
				-1,
				-1,
				-0.9999999403953552
			],
			"type":"VEC3"
		},
		{
			"bufferView":13,
			"componentType":5126,
			"count":74,
			"type":"VEC3"
		},
		{
			"bufferView":14,
			"componentType":5126,
			"count":74,
			"type":"VEC2"
		},
		{
			"bufferView":15,
			"componentType":5123,
			"count":192,
			"type":"SCALAR"
		},
		{
			"bufferView":16,
			"componentType":5126,
			"count":74,
			"max":[
				1,
				1,
				1
			],
			"min":[
				-1,
				-1,
				-0.9999999403953552
			],
			"type":"VEC3"
		},
		{
			"bufferView":17,
			"componentType":5126,
			"count":74,
			"type":"VEC3"
		},
		{
			"bufferView":18,
			"componentType":5126,
			"count":74,
			"type":"VEC2"
		},
		{
			"bufferView":19,
			"componentType":5123,
			"count":192,
			"type":"SCALAR"
		},
		{
			"bufferView":20,
			"componentType":5126,
			"count":1078,
			"max":[
				1.253468632698059,
				0.13925977051258087,
				2.5769498348236084
			],
			"min":[
				-1.253468632698059,
				-0.20716583728790283,
				-2.5769498348236084
			],
			"type":"VEC3"
		},
		{
			"bufferView":21,
			"componentType":5126,
			"count":1078,
			"type":"VEC3"
		},
		{
			"bufferView":22,
			"componentType":5126,
			"count":1078,
			"type":"VEC2"
		},
		{
			"bufferView":23,
			"componentType":5123,
			"count":3558,
			"type":"SCALAR"
		},
		{
			"bufferView":24,
			"componentType":5126,
			"count":86,
			"max":[
				1.1423110961914062,
				0.13925977051258087,
				2.4841487407684326
			],
			"min":[
				-1.1423110961914062,
				0.13925977051258087,
				-2.4841487407684326
			],
			"type":"VEC3"
		},
		{
			"bufferView":25,
			"componentType":5126,
			"count":86,
			"type":"VEC3"
		},
		{
			"bufferView":26,
			"componentType":5126,
			"count":86,
			"type":"VEC2"
		},
		{
			"bufferView":27,
			"componentType":5123,
			"count":264,
			"type":"SCALAR"
		}
	],
	"bufferViews":[
		{
			"buffer":0,
			"byteLength":2232,
			"byteOffset":0,
			"target":34962
		},
		{
			"buffer":0,
			"byteLength":2232,
			"byteOffset":2232,
			"target":34962
		},
		{
			"buffer":0,
			"byteLength":1488,
			"byteOffset":4464,
			"target":34962
		},
		{
			"buffer":0,
			"byteLength":960,
			"byteOffset":5952,
			"target":34963
		},
		{
			"buffer":0,
			"byteLength":2232,
			"byteOffset":6912,
			"target":34962
		},
		{
			"buffer":0,
			"byteLength":2232,
			"byteOffset":9144,
			"target":34962
		},
		{
			"buffer":0,
			"byteLength":1488,
			"byteOffset":11376,
			"target":34962
		},
		{
			"buffer":0,
			"byteLength":960,
			"byteOffset":12864,
			"target":34963
		},
		{
			"buffer":0,
			"byteLength":2232,
			"byteOffset":13824,
			"target":34962
		},
		{
			"buffer":0,
			"byteLength":2232,
			"byteOffset":16056,
			"target":34962
		},
		{
			"buffer":0,
			"byteLength":1488,
			"byteOffset":18288,
			"target":34962
		},
		{
			"buffer":0,
			"byteLength":960,
			"byteOffset":19776,
			"target":34963
		},
		{
			"buffer":0,
			"byteLength":888,
			"byteOffset":20736,
			"target":34962
		},
		{
			"buffer":0,
			"byteLength":888,
			"byteOffset":21624,
			"target":34962
		},
		{
			"buffer":0,
			"byteLength":592,
			"byteOffset":22512,
			"target":34962
		},
		{
			"buffer":0,
			"byteLength":384,
			"byteOffset":23104,
			"target":34963
		},
		{
			"buffer":0,
			"byteLength":888,
			"byteOffset":23488,
			"target":34962
		},
		{
			"buffer":0,
			"byteLength":888,
			"byteOffset":24376,
			"target":34962
		},
		{
			"buffer":0,
			"byteLength":592,
			"byteOffset":25264,
			"target":34962
		},
		{
			"buffer":0,
			"byteLength":384,
			"byteOffset":25856,
			"target":34963
		},
		{
			"buffer":0,
			"byteLength":12936,
			"byteOffset":26240,
			"target":34962
		},
		{
			"buffer":0,
			"byteLength":12936,
			"byteOffset":39176,
			"target":34962
		},
		{
			"buffer":0,
			"byteLength":8624,
			"byteOffset":52112,
			"target":34962
		},
		{
			"buffer":0,
			"byteLength":7116,
			"byteOffset":60736,
			"target":34963
		},
		{
			"buffer":0,
			"byteLength":1032,
			"byteOffset":67852,
			"target":34962
		},
		{
			"buffer":0,
			"byteLength":1032,
			"byteOffset":68884,
			"target":34962
		},
		{
			"buffer":0,
			"byteLength":688,
			"byteOffset":69916,
			"target":34962
		},
		{
			"buffer":0,
			"byteLength":528,
			"byteOffset":70604,
			"target":34963
		}
	],
	"samplers":[
		{
			"magFilter":9729,
			"minFilter":9987
		}
	],
	"buffers":[
		{
			"byteLength":71132,
			"uri":"itcamp19.bin"
		}
	]
}
